<svg width="41" height="40" viewBox="0 0 41 40" fill="none" xmlns="http://www.w3.org/2000/svg">
<path fill-rule="evenodd" clip-rule="evenodd" d="M4 1C4 0.447715 4.44772 0 5 0H36.5C37.0523 0 37.5 0.447715 37.5 1V13.2583L40.53 15.152C40.8224 15.3347 41 15.6552 41 16V38C41 39.1046 40.1046 40 39 40H2C0.89543 40 0 39.1046 0 38V16C0 15.6852 0.148194 15.3889 0.4 15.2L4 12.5V1ZM4 15L2 16.5V38H39V16.5542L37.5 15.6167V19.5H35.5V14.3667L35.47 14.348L35.5 14.3V2H6V18.5H4V15Z" fill="#848D94"/>
<path fill-rule="evenodd" clip-rule="evenodd" d="M15.7528 27.0243L1.43917 17.328L2.56087 15.6721L17.8068 26H24.1932L39.4392 15.6721L40.5609 17.328L26.2033 27.054L40.6122 38.2093L39.3878 39.7908L24.1582 28H17.8221L2.08365 39.3121L0.916382 37.688L15.7528 27.0243Z" fill="#848D94"/>
<path fill-rule="evenodd" clip-rule="evenodd" d="M20 19C20 18.4477 20.4477 18 21 18H28C28.5523 18 29 18.4477 29 19C29 19.5523 28.5523 20 28 20H21C20.4477 20 20 19.5523 20 19Z" fill="#848D94"/>
<path fill-rule="evenodd" clip-rule="evenodd" d="M25.2654 6C25.0706 6 24.8838 6.07739 24.746 6.21516L14.7207 16.2405L14.3744 17.6256L15.7595 17.2793L25.7849 7.25402C25.8531 7.18581 25.9072 7.10483 25.9441 7.01571C25.981 6.92658 26 6.83106 26 6.73459C26 6.63812 25.981 6.5426 25.9441 6.45347C25.9072 6.36435 25.8531 6.28337 25.7849 6.21516C25.7167 6.14694 25.6357 6.09283 25.5465 6.05592C25.4574 6.019 25.3619 6 25.2654 6ZM23.3318 4.80094C23.8446 4.28811 24.5402 4 25.2654 4C25.6245 4 25.9801 4.07073 26.3119 4.20816C26.6437 4.34558 26.9451 4.54701 27.1991 4.80094C27.453 5.05487 27.6544 5.35633 27.7919 5.68811C27.9293 6.01988 28 6.37548 28 6.73459C28 7.0937 27.9293 7.4493 27.7919 7.78107C27.6544 8.11285 27.453 8.41431 27.1991 8.66824L16.9779 18.8894C16.8497 19.0176 16.6892 19.1085 16.5133 19.1524L13.2426 19.9701C12.9018 20.0553 12.5413 19.9555 12.2929 19.7071C12.0445 19.4587 11.9447 19.0982 12.0299 18.7575L12.8476 15.4867C12.8915 15.3109 12.9824 15.1503 13.1106 15.0221L23.3318 4.80094Z" fill="#848D94"/>
</svg>
