<svg width="70" height="70" viewBox="0 0 70 70" fill="none" xmlns="http://www.w3.org/2000/svg">
<rect width="70" height="70" fill="black"/>
<path fill-rule="evenodd" clip-rule="evenodd" d="M19 15C19 14.4477 19.4477 14 20 14H51.5C52.0523 14 52.5 14.4477 52.5 15V27.2583L55.53 29.152C55.8224 29.3347 56 29.6552 56 30V52C56 53.1046 55.1046 54 54 54H17C15.8954 54 15 53.1046 15 52V30C15 29.6852 15.1482 29.3889 15.4 29.2L19 26.5V15ZM19 29L17 30.5V52H54V30.5542L52.5 29.6167V33.5H50.5V28.3667L50.47 28.348L50.5 28.3V16H21V32.5H19V29Z" fill="white"/>
<path fill-rule="evenodd" clip-rule="evenodd" d="M30.7528 41.0243L16.4392 31.328L17.5609 29.6721L32.8068 40H39.1932L54.4392 29.6721L55.5609 31.328L41.2033 41.054L55.6122 52.2093L54.3878 53.7908L39.1582 42H32.8221L17.0837 53.3121L15.9164 51.688L30.7528 41.0243Z" fill="white"/>
<path fill-rule="evenodd" clip-rule="evenodd" d="M35 33C35 32.4477 35.4477 32 36 32H43C43.5523 32 44 32.4477 44 33C44 33.5523 43.5523 34 43 34H36C35.4477 34 35 33.5523 35 33Z" fill="white"/>
<path fill-rule="evenodd" clip-rule="evenodd" d="M40.2654 20C40.0706 20 39.8838 20.0774 39.746 20.2152L29.7207 30.2405L29.3744 31.6256L30.7595 31.2793L40.7849 21.254C40.8531 21.1858 40.9072 21.1048 40.9441 21.0157C40.981 20.9266 41 20.8311 41 20.7346C41 20.6381 40.981 20.5426 40.9441 20.4535C40.9072 20.3644 40.8531 20.2834 40.7849 20.2152C40.7167 20.1469 40.6357 20.0928 40.5465 20.0559C40.4574 20.019 40.3619 20 40.2654 20ZM38.3318 18.8009C38.8446 18.2881 39.5402 18 40.2654 18C40.6245 18 40.9801 18.0707 41.3119 18.2082C41.6437 18.3456 41.9451 18.547 42.1991 18.8009C42.453 19.0549 42.6544 19.3563 42.7919 19.6881C42.9293 20.0199 43 20.3755 43 20.7346C43 21.0937 42.9293 21.4493 42.7919 21.7811C42.6544 22.1128 42.453 22.4143 42.1991 22.6682L31.9779 32.8894C31.8497 33.0176 31.6892 33.1085 31.5133 33.1524L28.2426 33.9701C27.9018 34.0553 27.5413 33.9555 27.2929 33.7071C27.0445 33.4587 26.9447 33.0982 27.0299 32.7575L27.8476 29.4867C27.8915 29.3109 27.9824 29.1503 28.1106 29.0221L38.3318 18.8009Z" fill="white"/>
</svg>
